<svg width="512" height="512" viewBox="0 0 512 512" fill="none" xmlns="http://www.w3.org/2000/svg">
<path d="M149.397 45.7271H134.168L208.662 180.244L217.099 165.701L149.397 45.7271Z" fill="url(#paint0_linear_1_28)"/>
<path d="M163.176 212.964L171.612 198.421L82.6794 45.7271H66L163.176 212.964Z" fill="url(#paint1_linear_1_28)"/>
<path d="M365.365 59.5423H350.811L214.367 302.52L222.276 315.943L365.365 59.5423Z" fill="url(#paint2_linear_1_28)"/>
<path d="M196.534 450.731H211.038L446 45.7271H431.496L423.481 59.5423L288.494 292.219L280.058 306.762L240.405 375.111L196.534 450.731Z" fill="url(#paint3_linear_1_28)"/>
<path d="M358.977 45L350.811 59.5423H365.365H423.481L431.496 45.7271L358.977 45Z" fill="url(#paint4_linear_1_28)"/>
<path d="M181.305 246.411L173.139 260.953L206.201 317.062L214.136 330.529L240.405 375.111L248.571 360.568L222.276 315.943L214.367 302.52L181.305 246.411Z" fill="url(#paint5_linear_1_28)"/>
<path d="M122.565 466H138.519L147.056 450.731L214.136 330.529L206.201 317.062L122.565 466Z" fill="url(#paint6_linear_1_28)"/>
<path d="M138.519 466H202.336L211.038 450.731H196.534H147.056L138.519 466Z" fill="url(#paint7_linear_1_28)"/>
<path d="M280.058 306.762L288.494 292.219L274.855 268.049L266.418 282.592L280.058 306.762Z" fill="url(#paint8_linear_1_28)"/>
<defs>
<linearGradient id="paint0_linear_1_28" x1="446" y1="45" x2="128.158" y2="465.363" gradientUnits="userSpaceOnUse">
<stop stop-color="#5BCEFA"/>
<stop offset="0.235392" stop-color="#F5A9B8"/>
<stop offset="0.484375" stop-color="white"/>
<stop offset="0.739583" stop-color="#F5A9B8"/>
<stop offset="1" stop-color="#5BCEFA"/>
</linearGradient>
<linearGradient id="paint1_linear_1_28" x1="446" y1="45" x2="128.158" y2="465.363" gradientUnits="userSpaceOnUse">
<stop stop-color="#5BCEFA"/>
<stop offset="0.235392" stop-color="#F5A9B8"/>
<stop offset="0.484375" stop-color="white"/>
<stop offset="0.739583" stop-color="#F5A9B8"/>
<stop offset="1" stop-color="#5BCEFA"/>
</linearGradient>
<linearGradient id="paint2_linear_1_28" x1="446" y1="45" x2="128.158" y2="465.363" gradientUnits="userSpaceOnUse">
<stop stop-color="#5BCEFA"/>
<stop offset="0.235392" stop-color="#F5A9B8"/>
<stop offset="0.484375" stop-color="white"/>
<stop offset="0.739583" stop-color="#F5A9B8"/>
<stop offset="1" stop-color="#5BCEFA"/>
</linearGradient>
<linearGradient id="paint3_linear_1_28" x1="446" y1="45" x2="128.158" y2="465.363" gradientUnits="userSpaceOnUse">
<stop stop-color="#5BCEFA"/>
<stop offset="0.235392" stop-color="#F5A9B8"/>
<stop offset="0.484375" stop-color="white"/>
<stop offset="0.739583" stop-color="#F5A9B8"/>
<stop offset="1" stop-color="#5BCEFA"/>
</linearGradient>
<linearGradient id="paint4_linear_1_28" x1="446" y1="45" x2="128.158" y2="465.363" gradientUnits="userSpaceOnUse">
<stop stop-color="#5BCEFA"/>
<stop offset="0.235392" stop-color="#F5A9B8"/>
<stop offset="0.484375" stop-color="white"/>
<stop offset="0.739583" stop-color="#F5A9B8"/>
<stop offset="1" stop-color="#5BCEFA"/>
</linearGradient>
<linearGradient id="paint5_linear_1_28" x1="446" y1="45" x2="128.158" y2="465.363" gradientUnits="userSpaceOnUse">
<stop stop-color="#5BCEFA"/>
<stop offset="0.235392" stop-color="#F5A9B8"/>
<stop offset="0.484375" stop-color="white"/>
<stop offset="0.739583" stop-color="#F5A9B8"/>
<stop offset="1" stop-color="#5BCEFA"/>
</linearGradient>
<linearGradient id="paint6_linear_1_28" x1="446" y1="45" x2="128.158" y2="465.363" gradientUnits="userSpaceOnUse">
<stop stop-color="#5BCEFA"/>
<stop offset="0.235392" stop-color="#F5A9B8"/>
<stop offset="0.484375" stop-color="white"/>
<stop offset="0.739583" stop-color="#F5A9B8"/>
<stop offset="1" stop-color="#5BCEFA"/>
</linearGradient>
<linearGradient id="paint7_linear_1_28" x1="446" y1="45" x2="128.158" y2="465.363" gradientUnits="userSpaceOnUse">
<stop stop-color="#5BCEFA"/>
<stop offset="0.235392" stop-color="#F5A9B8"/>
<stop offset="0.484375" stop-color="white"/>
<stop offset="0.739583" stop-color="#F5A9B8"/>
<stop offset="1" stop-color="#5BCEFA"/>
</linearGradient>
<linearGradient id="paint8_linear_1_28" x1="446" y1="45" x2="128.158" y2="465.363" gradientUnits="userSpaceOnUse">
<stop stop-color="#5BCEFA"/>
<stop offset="0.235392" stop-color="#F5A9B8"/>
<stop offset="0.484375" stop-color="white"/>
<stop offset="0.739583" stop-color="#F5A9B8"/>
<stop offset="1" stop-color="#5BCEFA"/>
</linearGradient>
</defs>
</svg>
