<?xml version="1.0" encoding="utf-8"?>

<!DOCTYPE svg PUBLIC "-//W3C//DTD SVG 1.1//EN" "http://www.w3.org/Graphics/SVG/1.1/DTD/svg11.dtd">
<!-- Uploaded to: SVG Repo, www.svgrepo.com, Generator: SVG Repo Mixer Tools -->
<svg height="800px" width="800px" version="1.1" id="_x32_" xmlns="http://www.w3.org/2000/svg" xmlns:xlink="http://www.w3.org/1999/xlink" 
	 viewBox="0 0 512 512"  xml:space="preserve">
<style type="text/css">
	.st0{fill:#aab;}
</style>
<g>
	<path class="st0" d="M249.005,169.833c-17.849-17.847-41.578-27.673-66.82-27.673c-25.241,0-48.97,9.826-66.818,27.673
		c-6.439,6.443-6.441,16.926-0.002,23.369l203.435,203.431c3.12,3.119,7.269,4.838,11.681,4.838c4.414,0,8.563-1.719,11.683-4.838
		c17.849-17.851,27.676-41.58,27.676-66.82c0-25.244-9.83-48.973-27.678-66.82L249.005,169.833z"/>
	<path class="st0" d="M382.108,0.001l-7.191,7.189c-12.28,12.281-15.387,30.714-7.924,46.27c-0.64,0.472-1.216,0.966-1.744,1.493
		l-83.768,83.772c-6.441,6.439-6.441,16.922,0,23.365l68.43,68.428c3.119,3.12,7.267,4.839,11.679,4.839h0.002
		c4.412,0,8.561-1.719,11.681-4.839l83.772-83.772c0.529-0.531,1.023-1.107,1.495-1.742c5.444,2.603,11.482,3.974,17.548,3.974
		c10.849,0,21.05-4.226,28.72-11.894L512,129.89L382.108,0.001z"/>
	<path class="st0" d="M197.892,314.104c-9.492-9.492-19.867-15.626-26.432-15.626c-2.063,0-3.706,0.594-4.883,1.771L35.757,431.212
		L0,511.999l81.245-36.073l130.502-130.502c2.534-2.536,2.326-7.312-0.589-13.443C208.47,326.318,203.758,319.972,197.892,314.104z"
		/>
</g>
</svg>